<svg version="1.1" xmlns="http://www.w3.org/2000/svg" viewBox="0 0 730.0080307144951 621.0894022896886" width="1460.0160614289903" height="1242.1788045793771">
  <!-- svg-source:excalidraw -->
  
  <defs>
    <style class="style-fonts">
      @font-face {
        font-family: "Virgil";
        src: url("https://excalidraw.com/Virgil.woff2");
      }
      @font-face {
        font-family: "Cascadia";
        src: url("https://excalidraw.com/Cascadia.woff2");
      }
      @font-face {
        font-family: "Assistant";
        src: url("https://excalidraw.com/Assistant-Regular.woff2");
      }
    </style>
    
  </defs>
  <rect x="0" y="0" width="730.0080307144951" height="621.0894022896886" fill="#ffffff"></rect><g stroke-linecap="round"><g transform="translate(11.008030714495135 110) rotate(0 0 250)"><path d="M0.3 -1.03 C0.45 82.35, 0.81 417.55, 0.79 501.09 M-1.01 1.05 C-0.93 84.04, 0.18 416.11, 0.25 499.54" stroke="#1e1e1e" stroke-width="2" fill="none"></path></g></g><mask></mask><g stroke-linecap="round"><g transform="translate(11.008030714495135 109) rotate(0 329 0)"><path d="M1.13 1.17 C110.75 1.01, 547.26 0.58, 656.92 0.19 M0.26 0.74 C110.32 1.31, 549.3 2.02, 659.07 1.83" stroke="#1e1e1e" stroke-width="2" fill="none"></path></g></g><mask></mask><g transform="translate(340.00803071449513 10) rotate(0 39.66666793823242 22.5)"><text x="0" y="0" font-family="Virgil, Segoe UI Emoji" font-size="36px" fill="#1e1e1e" text-anchor="start" style="white-space: pre;" direction="ltr" dominant-baseline="text-before-edge">Time</text></g><g stroke-linecap="round" transform="translate(19.008030714495135 117) rotate(0 350.5 58)"><path d="M29 0 C261.87 -1.36, 496.38 -0.07, 672 0 M29 0 C161.14 -4.05, 292.64 -4.1, 672 0 M672 0 C691.42 1.07, 703.8 7.33, 701 29 M672 0 C693.44 -3.88, 700.06 9.38, 701 29 M701 29 C705.8 46.53, 698.41 66.32, 701 87 M701 29 C700.51 47.57, 701.32 66.79, 701 87 M701 87 C702.32 108.18, 688.84 114.94, 672 116 M701 87 C696.81 108.22, 695.16 112.63, 672 116 M672 116 C501.54 117.64, 329.94 116.72, 29 116 M672 116 C468.6 112.5, 265.92 113.15, 29 116 M29 116 C7.85 112.44, 2.52 108.55, 0 87 M29 116 C8.55 113.65, 0.08 107.01, 0 87 M0 87 C-0.29 66.92, 1.02 45.43, 0 29 M0 87 C1.67 64.46, 0.86 40.96, 0 29 M0 29 C2.44 12.06, 6.32 0.75, 29 0 M0 29 C2.51 5.08, 11.76 -0.62, 29 0" stroke="#e03131" stroke-width="2" fill="none"></path></g><g transform="translate(273.7246978897881 152.5) rotate(0 95.78333282470703 22.5)"><text x="95.78333282470703" y="0" font-family="Virgil, Segoe UI Emoji" font-size="36px" fill="#e03131" text-anchor="middle" style="white-space: pre;" direction="ltr" dominant-baseline="text-before-edge">Web server</text></g><g stroke-linecap="round" transform="translate(96.00803071449513 241) rotate(0 121.5 55)"><path d="M27.5 0 C69.08 -4.84, 101.56 -0.99, 215.5 0 M27.5 0 C64.56 3.5, 104.35 1.58, 215.5 0 M215.5 0 C229.95 1.21, 243.81 8.07, 243 27.5 M215.5 0 C236.15 -1.13, 241.11 7.43, 243 27.5 M243 27.5 C246.02 41.21, 242.42 48.93, 243 82.5 M243 27.5 C241.73 49.51, 240.4 70.06, 243 82.5 M243 82.5 C246.61 103.26, 233.82 109.49, 215.5 110 M243 82.5 C244.64 97.69, 237.85 110.59, 215.5 110 M215.5 110 C174.97 108.57, 133.1 110.5, 27.5 110 M215.5 110 C168.24 107.94, 119.34 108.05, 27.5 110 M27.5 110 C12.91 111.15, 1.21 97.62, 0 82.5 M27.5 110 C13.72 105.44, -0.05 100.8, 0 82.5 M0 82.5 C-3.44 66.16, -3.62 55.68, 0 27.5 M0 82.5 C-0.21 67.75, 0.49 49.06, 0 27.5 M0 27.5 C1.85 9.77, 7.55 -3.79, 27.5 0 M0 27.5 C-1.68 5.07, 11.71 3.66, 27.5 0" stroke="#1971c2" stroke-width="2" fill="none"></path></g><g transform="translate(123.00803071449513 274) rotate(0 98.86666870117188 22.5)"><text x="0" y="0" font-family="Virgil, Segoe UI Emoji" font-size="36px" fill="#1971c2" text-anchor="start" style="white-space: pre;" direction="ltr" dominant-baseline="text-before-edge">Foo service</text></g><g stroke-linecap="round" transform="translate(153.00803071449513 361) rotate(0 91.5 98)"><path d="M32 0 C73.36 2.47, 108.28 0.97, 151 0 M32 0 C74.33 -1.43, 112.4 -1.41, 151 0 M151 0 C174.69 2, 179.48 13.95, 183 32 M151 0 C174.96 -2.31, 181.63 7.39, 183 32 M183 32 C183.61 75.02, 185.53 119.06, 183 164 M183 32 C181.48 83.82, 184.46 137.69, 183 164 M183 164 C180.22 188.41, 171.62 196.86, 151 196 M183 164 C186.54 181.18, 174.1 195.43, 151 196 M151 196 C105.95 198.24, 71.89 198.82, 32 196 M151 196 C117.6 192.75, 87.52 193.53, 32 196 M32 196 C8.11 196.75, -3.96 182.9, 0 164 M32 196 C7.23 193.77, 3.18 184.64, 0 164 M0 164 C-0.3 123.92, 3.95 83.36, 0 32 M0 164 C2.77 125.82, 4.36 91.11, 0 32 M0 32 C0.08 8.67, 7.97 -2.39, 32 0 M0 32 C-1.45 12.88, 14.9 -0.05, 32 0" stroke="#2f9e44" stroke-width="2" fill="none"></path></g><g transform="translate(187.00803071449513 417) rotate(0 59.599998474121094 45)"><text x="59.599998474121094" y="0" font-family="Virgil, Segoe UI Emoji" font-size="36px" fill="#2f9e44" text-anchor="middle" style="white-space: pre;" direction="ltr" dominant-baseline="text-before-edge">Bar</text><text x="59.599998474121094" y="45" font-family="Virgil, Segoe UI Emoji" font-size="36px" fill="#2f9e44" text-anchor="middle" style="white-space: pre;" direction="ltr" dominant-baseline="text-before-edge">service</text></g><g stroke-linecap="round" transform="translate(426.00803071449513 240) rotate(0 140 61)"><path d="M30.5 0 C97.84 2.13, 158.54 -1.63, 249.5 0 M30.5 0 C114.08 4.53, 199.27 1.57, 249.5 0 M249.5 0 C273.6 1.8, 280.06 12.43, 280 30.5 M249.5 0 C273.35 0.72, 282.21 7.36, 280 30.5 M280 30.5 C276.06 54.02, 278.96 75.03, 280 91.5 M280 30.5 C279.67 56.27, 280.33 78.14, 280 91.5 M280 91.5 C278.06 109.75, 267.95 125.88, 249.5 122 M280 91.5 C281.87 114.85, 266.55 122.14, 249.5 122 M249.5 122 C184.79 129.11, 114.67 123.12, 30.5 122 M249.5 122 C195.69 122.55, 140.54 122.58, 30.5 122 M30.5 122 C10.09 124.35, -3.44 109.72, 0 91.5 M30.5 122 C6.16 119.9, -0.82 115.31, 0 91.5 M0 91.5 C-0.09 70.11, -2.35 52.08, 0 30.5 M0 91.5 C-1.14 77.66, 0.64 64.24, 0 30.5 M0 30.5 C0.48 13.44, 7.71 0.15, 30.5 0 M0 30.5 C-0.63 10.57, 5.7 2.32, 30.5 0" stroke="#f08c00" stroke-width="2" fill="none"></path></g><g transform="translate(443.49136048744435 278.5) rotate(0 122.51667022705078 22.5)"><text x="122.51667022705078" y="0" font-family="Virgil, Segoe UI Emoji" font-size="36px" fill="#f08c00" text-anchor="middle" style="white-space: pre;" direction="ltr" dominant-baseline="text-before-edge">Frombobulator</text></g><g stroke-linecap="round"><g transform="translate(76.00803071449513 99) rotate(0 -0.5 11.5)"><path d="M-0.67 0.41 C-0.86 4.05, -0.24 18.17, -0.22 22.1 M1.18 -0.43 C0.81 3.32, -0.38 19.39, -0.75 23.17" stroke="#1e1e1e" stroke-width="2" fill="none"></path></g></g><mask></mask><g stroke-linecap="round"><g transform="translate(183.00803071449513 97) rotate(0 -1 13)"><path d="M0.9 -0.74 C0.89 3.67, -0.76 21.7, -1.1 26.14 M-0.08 1.48 C-0.08 6.15, -1.35 23.46, -1.58 27.75" stroke="#1e1e1e" stroke-width="2" fill="none"></path></g></g><mask></mask><g stroke-linecap="round"><g transform="translate(269.00803071449513 99) rotate(0 0 11)"><path d="M0.49 -0.17 C0.47 3.58, 0.25 19.43, 0.01 23.17 M-0.71 -1.3 C-0.9 2.08, -1.29 17.49, -0.94 21.66" stroke="#1e1e1e" stroke-width="2" fill="none"></path></g></g><mask></mask><g stroke-linecap="round"><g transform="translate(367.00803071449513 97) rotate(0 -0.5 12.5)"><path d="M1.16 0.45 C1.12 4.68, -0.21 21.25, -0.56 25.39 M0.3 -0.37 C0.17 3.5, -0.94 18.95, -1.28 23.48" stroke="#1e1e1e" stroke-width="2" fill="none"></path></g></g><mask></mask><g stroke-linecap="round"><g transform="translate(456.00803071449513 98) rotate(0 -0.5 12.5)"><path d="M0.39 0.63 C0.18 5.02, -0.68 21.65, -0.94 25.63 M-0.87 -0.08 C-1.25 4.01, -1.66 19.57, -1.85 23.84" stroke="#1e1e1e" stroke-width="2" fill="none"></path></g></g><mask></mask><g stroke-linecap="round"><g transform="translate(540.0080307144951 97) rotate(0 0.5 14)"><path d="M-0.51 0.47 C-0.28 4.81, 0.91 22.53, 1.22 27.09 M1.42 -0.33 C1.53 4.66, 0.5 23.25, 0.39 28.16" stroke="#1e1e1e" stroke-width="2" fill="none"></path></g></g><mask></mask><g stroke-linecap="round"><g transform="translate(638.0080307144951 95) rotate(0 0 15)"><path d="M-1 -1.11 C-0.95 4, 0.34 24.83, 0.68 29.9 M0.68 0.92 C0.6 6.3, 0.07 26.5, 0.09 31.38" stroke="#1e1e1e" stroke-width="2" fill="none"></path></g></g><mask></mask><g transform="translate(608.4746978897881 72.5) rotate(0 25.53333282470703 10)"><text x="25.53333282470703" y="0" font-family="Virgil, Segoe UI Emoji" font-size="16px" fill="#1e1e1e" text-anchor="middle" style="white-space: pre;" direction="ltr" dominant-baseline="text-before-edge">600ms</text></g><g transform="translate(243.1413639206719 77) rotate(0 25.866666793823242 10)"><text x="25.866666793823242" y="0" font-family="Virgil, Segoe UI Emoji" font-size="16px" fill="#1e1e1e" text-anchor="middle" style="white-space: pre;" direction="ltr" dominant-baseline="text-before-edge">300ms</text></g><g stroke-linecap="round"><g transform="translate(113.00803071449513 215) rotate(0 4.5 24)"><path d="M1.2 -1.1 C2.91 6.75, 8.3 39.96, 9.65 48.19 M0.36 0.94 C2.03 9.53, 7.66 41.7, 9.05 49.82" stroke="#1e1e1e" stroke-width="2" fill="none"></path></g><g transform="translate(113.00803071449513 215) rotate(0 4.5 24)"><path d="M-4.93 29.73 C0.41 34.25, 3.52 37.66, 8.32 50.33 M-2.49 29.1 C-0.06 32.57, 2.92 37.73, 9.7 50.39" stroke="#1e1e1e" stroke-width="2" fill="none"></path></g><g transform="translate(113.00803071449513 215) rotate(0 4.5 24)"><path d="M11.53 26.88 C12.82 32.27, 11.84 36.38, 8.32 50.33 M13.97 26.24 C13.04 30.16, 12.64 35.91, 9.7 50.39" stroke="#1e1e1e" stroke-width="2" fill="none"></path></g></g><mask></mask><g stroke-linecap="round"><g transform="translate(161.00803071449513 339) rotate(0 10 19)"><path d="M-1.22 -2.06 C1.77 4.71, 15.79 31.91, 19.71 38.23 M3.32 2.99 C5.74 10.49, 14.24 36.19, 17.32 41.99" stroke="#1e1e1e" stroke-width="2" fill="none"></path></g><g transform="translate(161.00803071449513 339) rotate(0 10 19)"><path d="M1.4 25.91 C8.17 33.63, 11.76 39.49, 18.56 41.38 M2.59 25.4 C7.05 31.43, 12.48 37.12, 18.01 41.76" stroke="#1e1e1e" stroke-width="2" fill="none"></path></g><g transform="translate(161.00803071449513 339) rotate(0 10 19)"><path d="M14.99 20.33 C16.76 30.03, 15.38 37.92, 18.56 41.38 M16.18 19.82 C15.91 27.74, 16.61 35.37, 18.01 41.76" stroke="#1e1e1e" stroke-width="2" fill="none"></path></g></g><mask></mask><g stroke-linecap="round"><g transform="translate(317.00803071449513 382) rotate(0 1 -20.5)"><path d="M-0.3 -0.96 C0.01 -7.57, 2.26 -33.66, 2.76 -40.13 M1.75 1.15 C1.88 -5.75, 2.11 -34.69, 2.21 -41.8" stroke="#1e1e1e" stroke-width="2" fill="none"></path></g><g transform="translate(317.00803071449513 382) rotate(0 1 -20.5)"><path d="M7.42 -21.18 C7.99 -28.54, 5.96 -38.35, 1.72 -43.55 M8.12 -22.23 C7.53 -28.41, 5.81 -33.52, 2.76 -40.97" stroke="#1e1e1e" stroke-width="2" fill="none"></path></g><g transform="translate(317.00803071449513 382) rotate(0 1 -20.5)"><path d="M-6.62 -21.33 C-0.78 -28.6, 2.46 -38.36, 1.72 -43.55 M-5.92 -22.37 C-2.85 -28.5, -0.91 -33.56, 2.76 -40.97" stroke="#1e1e1e" stroke-width="2" fill="none"></path></g></g><mask></mask><g stroke-linecap="round"><g transform="translate(320.00803071449513 262) rotate(0 4 -19)"><path d="M0.37 -1.11 C1.76 -7.36, 7.7 -31.91, 8.96 -38.02 M-0.89 0.92 C0.36 -5.09, 7.19 -30.28, 8.51 -36.5" stroke="#1e1e1e" stroke-width="2" fill="none"></path></g><g transform="translate(320.00803071449513 262) rotate(0 4 -19)"><path d="M8.82 -15.64 C9.91 -24.21, 9.52 -30.9, 9.7 -37.05 M10.12 -16.4 C9.45 -21.18, 9.65 -27.53, 8.66 -35.81" stroke="#1e1e1e" stroke-width="2" fill="none"></path></g><g transform="translate(320.00803071449513 262) rotate(0 4 -19)"><path d="M-4.08 -18.81 C1.58 -26.3, 5.77 -31.86, 9.7 -37.05 M-2.78 -19.57 C-0.16 -23.61, 3.33 -29.16, 8.66 -35.81" stroke="#1e1e1e" stroke-width="2" fill="none"></path></g></g><mask></mask><g stroke-linecap="round"><g transform="translate(440.00803071449513 214) rotate(0 11 19)"><path d="M0.66 -0.04 C4.27 5.61, 15.59 30.11, 19.35 36 M-2.43 -2.52 C2.22 3.24, 20.23 31.96, 24.32 38.55" stroke="#1e1e1e" stroke-width="2" fill="none"></path></g><g transform="translate(440.00803071449513 214) rotate(0 11 19)"><path d="M6.97 23.17 C9.44 28.83, 12.75 31.5, 24.34 38.2 M6.47 24.4 C9.82 28.21, 14.51 31.03, 24.39 37.99" stroke="#1e1e1e" stroke-width="2" fill="none"></path></g><g transform="translate(440.00803071449513 214) rotate(0 11 19)"><path d="M19.7 15.19 C19.46 22.62, 19.99 27.02, 24.34 38.2 M19.2 16.43 C19.87 21.78, 21.93 26.26, 24.39 37.99" stroke="#1e1e1e" stroke-width="2" fill="none"></path></g></g><mask></mask><g stroke-linecap="round"><g transform="translate(675.0080307144951 253) rotate(0 7 -19)"><path d="M-0.2 -0.68 C1.91 -7.23, 11.45 -32.06, 13.7 -38.3 M-1.77 1.57 C0.06 -4.88, 9.66 -30.51, 12.59 -36.92" stroke="#1e1e1e" stroke-width="2" fill="none"></path></g><g transform="translate(675.0080307144951 253) rotate(0 7 -19)"><path d="M10.68 -17.18 C11.46 -25.7, 12.02 -32.76, 11.19 -36.98 M11.14 -17.45 C11.76 -24.36, 12.65 -33.67, 13.15 -37.13" stroke="#1e1e1e" stroke-width="2" fill="none"></path></g><g transform="translate(675.0080307144951 253) rotate(0 7 -19)"><path d="M-2.14 -22.42 C3.65 -28.88, 9.19 -33.91, 11.19 -36.98 M-1.68 -22.69 C4.08 -27.45, 10.06 -34.67, 13.15 -37.13" stroke="#1e1e1e" stroke-width="2" fill="none"></path></g></g><mask></mask></svg>